{
  "accessors": [
    {
      "bufferView": 1,
      "componentType": 5126,
      "count": 457,
      "max": [
        0.9848099946975708,
        0.16923999786376953,
        1.0011299848556519
      ],
      "min": [
        -0.9848099946975708,
        -0.10876999795436859,
        -0.9988700151443481
      ],
      "type": "VEC3"
    },
    {
      "bufferView": 1,
      "byteOffset": 5484,
      "componentType": 5126,
      "count": 457,
      "max": [
        1.0,
        1.0,
        1.0
      ],
      "min": [
        -1.0,
        -1.0,
        -1.0
      ],
      "type": "VEC3"
    },
    {
      "bufferView": 0,
      "componentType": 5125,
      "count": 981,
      "type": "SCALAR"
    }
  ],
  "asset": {
    "extras": {
      "author": "Jiří Kuba (https://sketchfab.com/kuba.jirka)",
      "license": "CC-BY-4.0 (http://creativecommons.org/licenses/by/4.0/)",
      "source": "https://sketchfab.com/3d-models/coin-8dfc897919d64d939d3f722e83f2ee23",
      "title": "Coin"
    },
    "generator": "Sketchfab-12.68.0",
    "version": "2.0"
  },
  "bufferViews": [
    {
      "buffer": 0,
      "byteLength": 3924,
      "name": "floatBufferViews",
      "target": 34963
    },
    {
      "buffer": 0,
      "byteLength": 10968,
      "byteOffset": 3924,
      "byteStride": 12,
      "name": "floatBufferViews",
      "target": 34962
    }
  ],
  "buffers": [
    {
      "byteLength": 14892,
      "uri": "scene.bin"
    }
  ],
  "materials": [
    {
      "doubleSided": true,
      "name": "CoinMaterial",
      "pbrMetallicRoughness": {
        "baseColorFactor": [
          0.8000025153160095,
          0.7558587789535522,
          0.0,
          1.0
        ],
        "roughnessFactor": 0.43730945121951215
      }
    }
  ],
  "meshes": [
    {
      "name": "Coin_0",
      "primitives": [
        {
          "attributes": {
            "NORMAL": 1,
            "POSITION": 0
          },
          "indices": 2,
          "material": 0,
          "mode": 4
        }
      ]
    }
  ],
  "nodes": [
    {
      "children": [
        1
      ],
      "matrix": [
        1.0,
        0.0,
        0.0,
        0.0,
        0.0,
        2.220446049250313e-16,
        -1.0,
        0.0,
        0.0,
        1.0,
        2.220446049250313e-16,
        0.0,
        0.0,
        0.0,
        0.0,
        1.0
      ],
      "name": "Sketchfab_model"
    },
    {
      "children": [
        2
      ],
      "name": "Root"
    },
    {
      "children": [
        3
      ],
      "name": "Coin"
    },
    {
      "mesh": 0,
      "name": "Coin_0"
    }
  ],
  "scene": 0,
  "scenes": [
    {
      "name": "Sketchfab_Scene",
      "nodes": [
        0
      ]
    }
  ]
}
